<svg width="128" height="31" viewBox="0 0 128 31" fill="none" xmlns="http://www.w3.org/2000/svg">
<path fill-rule="evenodd" clip-rule="evenodd" d="M118.373 0.0718248L118.373 0.0718358C119.1 0.164409 119.828 0.257003 120.534 0.482635C122.325 1.05677 123.845 2.0331 125.094 3.44782C125.396 3.78969 125.357 4.02095 125.089 4.34371C123.402 6.37279 121.242 7.72618 118.846 8.74574C118.09 9.06743 117.311 9.3165 116.53 9.56609C116.42 9.60125 116.309 9.63642 116.199 9.6718C115.8 9.8005 115.619 9.71403 115.414 9.35205C114.727 8.14245 113.288 7.65982 111.991 8.15753C110.696 8.65424 109.973 10.0187 110.265 11.4083C110.538 12.7054 111.777 13.6586 113.12 13.6043C114.475 13.55 115.615 12.5405 115.789 11.1951C115.834 10.8442 115.963 10.6642 116.296 10.5576C117.171 10.2791 118.039 9.98048 118.903 9.66979C119.277 9.53505 119.351 9.63862 119.256 9.99758C118.183 14.0648 113.128 16.4025 109.513 13.4414C107.96 12.1684 107.457 10.4611 107.731 8.54565C108.368 4.07324 111.859 0.683732 116.34 0.0975324C116.445 0.0835562 116.552 0.0827356 116.66 0.0819147C116.853 0.0804323 117.046 0.0789492 117.231 0C117.432 0.00100549 117.631 0.00100549 117.832 0.00100549C118.012 0.0259592 118.192 0.0488915 118.373 0.0718248ZM127.559 10.5244C127.412 11.7531 127.158 12.9507 126.667 14.0979C125.052 17.8705 120.767 20.3963 116.71 19.9489C116.66 19.9439 116.611 19.9358 116.562 19.9278L116.561 19.9278C115.742 19.796 115.592 19.4833 116.134 18.8408C116.625 18.2596 117.134 17.6944 117.644 17.1292L117.645 17.129L117.645 17.1288C118.107 16.6166 118.569 16.1043 119.017 15.58C120.562 13.7712 121.789 11.7823 122.338 9.43147C122.385 9.22836 122.45 9.02827 122.702 9.02022C124.337 8.96693 125.97 8.9247 127.56 9.42141C127.559 9.78942 127.559 10.1574 127.559 10.5244ZM96.3946 10.1002C95.1904 10.6371 94.1718 11.4435 93.1513 12.3776C93.0068 11.9697 92.9707 11.5948 92.9358 11.2332V11.2331L92.9358 11.2329L92.9358 11.2326L92.9357 11.2324C92.9239 11.1094 92.9122 10.988 92.8964 10.8674C92.791 10.0429 92.6676 9.91315 91.8166 9.91215C90.4593 9.91148 89.102 9.9117 87.7446 9.91192H87.7403L85.7022 9.91215C84.8472 9.91215 84.8472 9.91315 84.8181 10.7647V10.7648L84.8178 10.7728C84.781 11.8488 84.7805 11.8625 85.8116 12.1433C86.5231 12.3374 87.0148 12.7255 87.1101 13.4867C87.1703 13.9663 87.2125 14.4509 87.2135 14.9336C87.2225 18.3904 87.2225 21.8473 87.2135 25.3042C87.2115 25.9205 87.1683 26.5389 87.1161 27.1533C87.0539 27.8903 86.804 28.1769 86.1287 28.3619C85.0098 28.6685 85.0098 28.6685 85.0148 29.8651C85.0178 30.5518 85.0208 30.5599 85.7182 30.5599L86.9672 30.5609C89.2574 30.5629 91.5475 30.5648 93.8377 30.5589C93.9905 30.5585 94.1261 30.5595 94.2466 30.5605C94.7545 30.5644 94.9915 30.5663 95.1016 30.449C95.1978 30.3464 95.1969 30.1526 95.1951 29.7892C95.1943 29.6291 95.1933 29.4361 95.2004 29.2035C95.2135 28.7832 95.1061 28.5841 94.6455 28.5097C93.6621 28.3508 93.4132 28.017 93.3791 27.0276C93.375 26.927 93.372 26.8275 93.372 26.7269C93.3713 25.6994 93.3709 24.6718 93.3705 23.6442V23.6441V23.644V23.6439V23.6438V23.6437V23.6436C93.3694 20.7305 93.3684 17.8172 93.358 14.9044C93.357 14.5062 93.4995 14.2951 93.8688 14.1634C94.9927 13.7622 96.1508 13.6445 97.3249 13.7783C98.1628 13.8738 98.7328 14.3574 98.9536 15.196C99.1031 15.7641 99.1433 16.3483 99.1453 16.9325C99.1504 18.6675 99.1496 20.403 99.1488 22.1383V22.1449V22.145V22.1451V22.1452V22.1453C99.1485 22.779 99.1483 23.4127 99.1483 24.0463C99.1483 24.1716 99.1485 24.2969 99.1487 24.4222C99.1502 25.3818 99.1517 26.3412 99.063 27.2991C98.9997 27.9868 98.779 28.2935 98.1718 28.4715C97.358 28.7108 97.358 28.7108 97.358 29.5514V29.8017C97.361 30.5458 97.37 30.5599 98.1136 30.5599C99.3973 30.5608 100.681 30.5607 101.964 30.5605C103.504 30.5604 105.044 30.5602 106.584 30.5619C107.562 30.5636 107.561 30.5375 107.542 29.9385C107.539 29.8449 107.536 29.7373 107.536 29.6137C107.535 29.4777 107.537 29.3603 107.539 29.2586C107.545 28.9394 107.548 28.7748 107.468 28.6768C107.384 28.5725 107.206 28.5437 106.839 28.4843C106.743 28.4687 106.633 28.451 106.509 28.4292C105.779 28.3015 105.533 28.0743 105.383 27.3534C105.333 27.11 105.315 26.8566 105.314 26.6083C105.311 25.404 105.31 24.1998 105.31 22.9957V22.9926C105.308 20.7575 105.307 18.5227 105.29 16.288C105.28 15.02 105.199 13.7541 104.738 12.5435C104.165 11.0393 103.169 9.98555 101.58 9.59542C99.7996 9.15803 98.0675 9.35511 96.3946 10.1002ZM15.1281 30.9952C12.6976 30.9992 10.5571 30.6986 8.51693 29.868C5.45822 28.6222 3.29967 26.4383 2.16269 23.3595C0.390486 18.5593 0.522946 13.75 2.59721 9.0715C4.26103 5.31901 7.2224 3.00538 11.1853 2.01699C15.3719 0.973288 19.4 1.4328 23.2335 3.45886C23.6339 3.67001 23.7503 3.91133 23.7202 4.3648C23.5847 6.44516 23.4873 8.52853 23.396 10.6119C23.378 11.0161 23.2475 11.1961 22.828 11.1458C22.1487 11.0644 21.4683 10.996 20.7869 10.9327C20.4618 10.9025 20.3945 10.6823 20.3484 10.4189L20.3236 10.2782L20.3235 10.278L20.3235 10.2779L20.3235 10.2777L20.3234 10.2776L20.3234 10.2774C20.1782 9.45381 20.0331 8.63036 19.8727 7.80961C19.4893 5.84891 18.2711 4.81928 16.25 4.73482C12.8481 4.59204 10.4377 6.19379 9.07689 9.49079C8.38647 11.1629 8.06736 12.9195 7.97905 14.7083C7.85461 17.2331 7.94794 19.7518 8.66746 22.2022C9.14513 23.8301 9.8797 25.3112 11.2395 26.4071C12.0102 27.0285 12.8862 27.4307 13.8516 27.6137C15.0267 27.8369 16.2119 27.8219 17.389 27.6167C18.5812 27.4086 19.391 26.7289 19.7583 25.5716C20.0463 24.6656 20.3072 23.7496 20.5541 22.8316C20.6524 22.4656 20.825 22.3078 21.2174 22.3228C21.9179 22.35 22.6203 22.3409 23.3218 22.3279C23.673 22.3208 23.8004 22.4727 23.7814 22.8105C23.673 24.7089 23.5646 26.6072 23.4703 28.5066C23.4492 28.9339 23.2204 29.1561 22.8602 29.3301C21.0167 30.2199 19.0629 30.6875 17.0368 30.8906C16.3233 30.96 15.6078 31.0173 15.1281 30.9952ZM40.5169 30.8785C43.2996 31.2626 45.7773 30.7307 47.699 28.3205C48.3122 30.4894 49.9539 30.9207 51.8185 30.9891C52.8952 31.0283 53.9429 30.8343 54.9916 30.608C55.5154 30.4944 55.7031 30.2631 55.685 29.7232L55.6822 29.639C55.6497 28.6411 55.6494 28.6347 54.6062 28.4311C53.8797 28.2894 53.6107 27.9857 53.5746 27.2386C53.5565 26.8716 53.5556 26.5036 53.5556 26.1366C53.5549 25.2516 53.5566 24.3666 53.5584 23.4816V23.4815V23.4815V23.4814V23.4813C53.5621 21.527 53.5659 19.5728 53.5445 17.6191C53.5305 16.32 53.4913 15.0169 53.1762 13.7399C52.6373 11.557 51.3318 10.1684 49.106 9.6657C48.1024 9.43947 47.0909 9.39121 46.0713 9.37713C42.9474 9.33389 40.1245 10.2871 37.5093 11.9421C37.2223 12.1241 37.1782 12.3071 37.3327 12.6007C37.6278 13.1618 37.9198 13.7279 38.1696 14.3101C38.3332 14.6901 38.5088 14.7495 38.8892 14.5745C40.4908 13.8355 42.1526 13.2905 43.9308 13.1869C45.8646 13.0753 47.2414 13.8003 47.3518 15.9088C47.3571 16.0095 47.3628 16.1102 47.3685 16.2107V16.2108V16.2109V16.211V16.211C47.3913 16.6104 47.414 17.0091 47.406 17.409C47.4004 17.6794 47.405 17.9007 47.4088 18.0818C47.4167 18.4592 47.4209 18.6625 47.3218 18.7736C47.2061 18.9033 46.9495 18.9073 46.3933 18.9161C46.2577 18.9182 46.1043 18.9207 45.9308 18.9253C44.1245 18.9735 42.3252 19.1173 40.5851 19.6422C38.5299 20.2626 36.9634 21.4128 36.4285 23.6299C36.2299 24.4544 36.2519 25.29 36.2981 26.1225C36.4386 28.6584 38.1124 30.5467 40.5169 30.8785ZM47.4044 22.8303V22.8309C47.4047 23.0087 47.405 23.1958 47.405 23.3967C47.3979 23.5713 47.3999 23.7604 47.402 23.959C47.4065 24.3792 47.4115 24.8426 47.3317 25.3041C47.2093 26.0099 46.8169 26.4865 46.1677 26.751C45.4522 27.0426 44.7126 27.0969 43.9619 26.8988C43.6007 26.8033 43.2806 26.6243 43.0176 26.3568C41.7392 25.0597 42.2439 22.4756 43.9218 21.7929C44.9293 21.3827 45.9971 21.3354 47.0708 21.3656C47.3378 21.3736 47.408 21.5254 47.406 21.7577C47.4033 22.1008 47.4038 22.4433 47.4044 22.8303ZM33.4353 13.8134C33.4353 14.7722 33.435 15.7311 33.4346 16.6899V16.6899V16.69V16.6901C33.4336 19.372 33.4327 22.0538 33.4393 24.735C33.4411 25.3897 33.4742 26.0452 33.5073 26.7001V26.7002V26.7003V26.7004L33.5216 26.9863C33.5688 27.9335 33.8558 28.2552 34.785 28.4382L34.7891 28.439C35.7364 28.6253 35.7434 28.6266 35.7354 29.5925C35.7343 29.7212 35.7365 29.8328 35.7385 29.9296C35.7511 30.5573 35.7512 30.5617 34.7539 30.5608C33.0354 30.5597 31.317 30.5598 29.5985 30.56C28.3094 30.5601 27.0204 30.5603 25.7313 30.5598C24.9606 30.5598 24.9596 30.5548 24.9586 29.7705C24.9566 28.6434 24.9566 28.6434 26.0855 28.4242C26.8994 28.2663 27.2035 27.9445 27.2546 27.107C27.2885 26.5453 27.2882 25.982 27.2878 25.4186V25.4185L27.2878 25.2539C27.2893 20.4118 27.2891 15.5697 27.2889 10.728V10.7118L27.2888 5.86501V5.66492C27.2767 3.83594 27.1061 3.59462 25.347 3.12807C24.9225 3.01546 24.781 2.83547 24.8522 2.39608C24.8876 2.17872 24.9118 1.99932 24.9316 1.85136C24.9799 1.4926 25.0032 1.31869 25.1025 1.23685C25.1959 1.15986 25.3565 1.16437 25.6682 1.17313C25.8101 1.17712 25.9834 1.18199 26.1959 1.18044C27.7931 1.1687 29.3902 1.17142 30.9873 1.17413C31.5789 1.17514 32.1704 1.17615 32.7619 1.17642C33.4313 1.17642 33.4353 1.17943 33.4353 1.84004V13.8134ZM65.3077 12.3415L65.3072 12.3421C65.1766 12.5189 65.0401 12.7038 64.8932 12.8994C64.8559 12.6873 64.8197 12.4834 64.7846 12.2856C64.6945 11.7773 64.6114 11.3084 64.532 10.8401C64.3895 10.0156 64.2721 9.9161 63.412 9.9151C62.133 9.91443 60.8536 9.91465 59.574 9.91487H59.5739H59.5697L57.6479 9.9151C56.7126 9.9151 56.7126 9.9151 56.5932 10.811V10.811C56.5232 11.3352 56.4884 11.5967 56.5989 11.7591C56.7089 11.9206 56.9628 11.9842 57.4692 12.1111C58.4858 12.3665 58.8952 12.8612 58.9494 13.9069C58.9615 14.1402 58.9634 14.3744 58.9634 14.6077C58.9634 18.4487 58.9634 22.2907 58.9604 26.1316L58.9603 26.2696C58.9604 26.5743 58.9604 26.8809 58.9203 27.1814C58.8169 27.9576 58.6052 28.1738 57.8465 28.3628C56.7447 28.6373 56.7447 28.6373 56.7497 29.8228C56.7527 30.5347 56.7718 30.5588 57.4762 30.5598C59.3908 30.5613 61.3048 30.5611 63.2191 30.5609H63.2192H63.2257L65.1461 30.5608C65.3666 30.5605 65.587 30.5597 65.8074 30.559C66.4059 30.5569 67.0043 30.5547 67.6027 30.5628C67.976 30.5688 68.1627 30.4422 68.1346 30.039C68.1118 29.7088 68.1205 29.376 68.1291 29.0438V29.0437V29.0435L68.1306 28.9872C68.1376 28.7017 68.0222 28.5639 67.7282 28.5337C67.2635 28.4865 66.8009 28.4151 66.3393 28.3417C65.6449 28.2311 65.3278 27.9294 65.2314 27.2447C65.1672 26.7822 65.123 26.3136 65.122 25.8481C65.1133 22.9242 65.1144 20.0011 65.1155 17.0782V17.0714L65.116 15.7268C65.116 15.0803 65.2003 15.0029 65.8646 14.9466C66.8401 14.8631 67.7512 15.1014 68.6434 15.4674C69.402 15.7791 70.1186 16.1733 70.8341 16.5714C71.4623 16.9213 71.6911 16.7916 71.7232 16.0948C71.7365 15.8148 71.7553 15.5347 71.774 15.2553L71.7814 15.1456L71.8465 14.1785C71.9368 12.8361 72.0271 11.4943 72.1226 10.1524C72.1457 9.83265 72.0282 9.66775 71.7061 9.58731C69.4562 9.02825 67.5345 9.50184 66.0503 11.361C65.8029 11.671 65.567 11.9904 65.3079 12.3412L65.3077 12.3415ZM81.5612 20.28V20.2801V20.2851C81.5622 21.9923 81.5632 23.6998 81.5565 25.4067C81.5545 25.9597 81.6007 26.5067 81.6509 27.0547C81.7281 27.9013 82.0182 28.2301 82.8571 28.4151C83.9529 28.6574 83.9529 28.6574 83.9489 29.7675C83.9469 30.5457 83.9379 30.5588 83.1732 30.5588C79.966 30.5598 76.7578 30.5598 73.5505 30.5588C72.8109 30.5588 72.7979 30.5417 72.7949 29.7997C72.7909 28.6454 72.7909 28.6454 73.9088 28.4292C74.9053 28.2371 75.1712 27.9486 75.3147 26.9582C75.3699 26.5761 75.394 26.196 75.394 25.8109C75.3935 23.9469 75.3937 22.0826 75.394 20.2183C75.3942 18.3588 75.3945 16.4992 75.394 14.6399L75.3942 14.5426V14.5426C75.3948 14.3411 75.3954 14.1382 75.3729 13.9391C75.2465 12.8089 74.8892 12.3926 73.7964 12.083L73.7803 12.0784C73.0492 11.8707 73.0124 11.8602 73.115 11.0966C73.1499 10.8362 73.1626 10.6327 73.1725 10.4738C73.1878 10.2287 73.1965 10.0897 73.2699 10.0111C73.3662 9.90806 73.5742 9.90928 74.0549 9.91209C74.158 9.9127 74.2737 9.91337 74.4035 9.91311C76.1651 9.90967 77.926 9.91065 79.6875 9.91164H79.6878L80.5681 9.91211C81.4542 9.91311 81.5596 10.0177 81.5596 10.8784C81.5611 12.7622 81.5609 14.6455 81.5607 16.5283L81.5605 18.4437C81.5605 19.0557 81.5609 19.6678 81.5612 20.28ZM76.0499 7.91534C76.0656 7.91693 76.0834 7.91873 76.103 7.92231C76.1308 7.90855 76.1608 7.89489 76.192 7.88068C76.2589 7.85025 76.3313 7.81732 76.399 7.7755C76.6465 7.62181 76.894 7.46812 77.1415 7.31444C79.2353 6.01427 81.3293 4.71398 83.4186 3.40565C83.8812 3.11707 83.8772 2.81543 83.4266 2.5349C82.8603 2.18182 82.2918 1.83199 81.7233 1.4822C81.0679 1.07891 80.4126 0.675666 79.7608 0.267518C79.5049 0.107645 79.3232 0.102617 79.1175 0.347957C78.0636 1.6071 77.0056 2.8631 75.9475 4.11926C75.4239 4.74091 74.9002 5.3626 74.3769 5.98473C74.3669 5.99674 74.3561 6.00909 74.3452 6.02173C74.2531 6.12755 74.1433 6.25381 74.2625 6.37687C74.7964 6.92788 75.3574 7.45174 75.9836 7.89918C75.9991 7.91019 76.0213 7.91244 76.0499 7.91534Z" fill="black"/>
</svg>
