<svg width="76" height="36" viewBox="0 0 76 36" fill="none" xmlns="http://www.w3.org/2000/svg">
<path fill-rule="evenodd" clip-rule="evenodd" d="M45.5817 16.394C45.5844 16.4595 45.5874 16.53 45.5491 16.621C45.5146 16.5625 45.4847 16.5123 45.457 16.4658C45.4337 16.4268 45.412 16.3904 45.3905 16.3538C45.1569 15.9488 44.9235 15.5437 44.6901 15.1386C44.1674 14.2311 43.6446 13.3236 43.1192 12.4177C42.7368 11.7587 42.3548 11.0994 41.9728 10.4402C40.7728 8.3692 39.5726 6.29804 38.3619 4.23335C37.6707 3.05533 36.7889 2.03781 35.6605 1.2514C34.2653 0.279613 32.7268 -0.176989 31.0306 0.0629475C29.2214 0.318934 27.8054 1.24096 26.7867 2.75441C26.0482 3.85218 25.6854 5.07915 25.6838 6.40161C25.679 10.2937 25.6796 14.1854 25.6802 18.0772C25.6804 19.3738 25.6806 20.6704 25.6806 21.967C25.6806 22.1933 25.6804 22.4196 25.6801 22.646C25.6796 23.0989 25.679 23.5518 25.6806 24.0045C25.683 24.7885 25.1809 25.2844 24.4184 25.2748C22.9911 25.2561 21.5627 25.2607 20.1346 25.2653C19.7853 25.2664 19.4361 25.2676 19.0869 25.2683C17.9433 25.2708 16.8196 25.144 15.7248 24.8013C14.332 24.3648 13.1187 23.6418 12.1809 22.5119C10.6816 20.7055 10.2195 18.6103 10.6488 16.3377C11.0997 13.9504 12.4027 12.1432 14.5747 11.0086C15.704 10.4179 16.9221 10.1596 18.1875 10.1491C19.5653 10.1375 20.9435 10.1396 22.3218 10.1418C22.9344 10.1428 23.5471 10.1437 24.1597 10.1435C24.4168 10.1435 24.424 10.1363 24.424 9.87868C24.4246 9.0152 24.4244 8.15137 24.4242 7.28765C24.4241 6.85583 24.424 6.42405 24.424 5.99235C24.424 5.70346 24.4232 5.70266 24.1301 5.70266C23.5493 5.70266 22.9685 5.70323 22.3877 5.70379C21.0088 5.70513 19.63 5.70647 18.2516 5.70026C17.2497 5.69625 16.2574 5.77007 15.2763 5.97309C12.4484 6.55729 10.1306 7.9632 8.41428 10.3056C6.94866 12.3061 6.23026 14.5779 6.09491 17.0383C6.00682 18.64 6.19102 20.216 6.69638 21.7439C7.73834 24.896 9.73815 27.2007 12.7703 28.5769C14.5851 29.4002 16.5073 29.7204 18.4871 29.726C20.524 29.7322 22.5609 29.7309 24.5979 29.7296C25.4561 29.729 26.3144 29.7284 27.1727 29.7284C27.341 29.7284 27.5093 29.7288 27.6776 29.7291C28.0808 29.73 28.4839 29.7308 28.8874 29.7268C29.4985 29.7212 30.0142 29.2935 30.1376 28.6957C30.176 28.5111 30.1776 28.3217 30.1776 28.1323V7.30278C30.1776 7.14549 30.1784 6.98821 30.184 6.83093C30.2008 6.3655 30.3402 5.93859 30.6141 5.56384C31.0498 4.96761 31.632 4.68755 32.376 4.78063C33.1217 4.87372 33.6318 5.30464 34.0131 5.92495C37.4976 11.5874 41.0078 17.234 44.5181 22.8807C45.8163 24.9691 47.1145 27.0575 48.4114 29.1467C48.4851 29.2646 48.5588 29.381 48.6565 29.4805C48.8816 29.7092 49.1442 29.8424 49.4702 29.7581C49.7858 29.6755 49.9307 29.4291 50.0108 29.1354C50.0733 28.9027 50.0821 28.6644 50.0821 28.4244C50.0813 21.3868 50.0813 14.35 50.0813 7.31241C50.0813 7.27471 50.0811 7.23702 50.0809 7.19933C50.0803 7.08616 50.0797 6.97299 50.0845 6.85982C50.1053 6.35587 50.2559 5.89445 50.5682 5.49643C51.0007 4.94433 51.5677 4.69557 52.2701 4.77903C53.0037 4.86649 53.5195 5.2918 53.8911 5.89044C55.2933 8.14813 56.6915 10.4082 58.0896 12.6682C59.1321 14.3531 60.1744 16.0381 61.2184 17.722C62.8248 20.3129 64.4342 22.9019 66.0435 25.4909C66.8003 26.7084 67.5571 27.9258 68.3135 29.1434C68.4072 29.2935 68.5065 29.438 68.6403 29.5559C69.0992 29.9628 69.7046 29.8087 69.9129 29.2301C69.9906 29.0142 70.0106 28.7888 70.0106 28.5617C70.0114 19.1784 70.0114 9.79523 70.0114 0.412018C70.0114 0.133562 70.0018 0.123931 69.7271 0.123931C69.5479 0.123816 69.3687 0.123685 69.1895 0.123555C68.1127 0.122768 67.0355 0.121982 65.9589 0.124734C65.9018 0.124841 65.8522 0.123569 65.8092 0.122466C65.5292 0.115279 65.528 0.115248 65.528 0.550039C65.528 1.87688 65.5281 3.20371 65.5281 4.53055C65.5283 8.46146 65.5284 12.3924 65.5272 16.3233C65.5272 16.3443 65.5286 16.3655 65.53 16.3868C65.5341 16.4519 65.5384 16.518 65.504 16.5809C65.4531 16.5641 65.434 16.5237 65.4157 16.4851C65.4103 16.4739 65.405 16.4628 65.3991 16.4525C64.8152 15.4542 64.2322 14.4551 63.6499 13.4561C63.1527 12.6023 62.6559 11.7483 62.1592 10.8943C60.8608 8.66177 59.5624 6.42938 58.2544 4.20286C57.5824 3.05854 56.7239 2.0675 55.6363 1.29473C54.2812 0.332574 52.7843 -0.148103 51.1136 0.0452908C49.318 0.253129 47.8901 1.11418 46.8289 2.57065C45.9711 3.74706 45.5867 5.08717 45.5835 6.53402C45.5786 8.76364 45.5793 10.9936 45.5799 13.2235C45.5802 14.264 45.5806 15.3045 45.5803 16.3449C45.5803 16.3611 45.581 16.3774 45.5817 16.394ZM0.560547 16.4733V18.6993C0.575921 18.8422 0.590477 18.9853 0.605012 19.1281C0.633637 19.4094 0.662177 19.6899 0.696704 19.9672C0.968205 22.1354 1.60571 24.1914 2.62845 26.1213C4.20219 29.0912 6.4623 31.3895 9.40637 33.0064C11.1107 33.9429 12.9279 34.5632 14.834 34.9307C15.9136 35.1386 17.0028 35.2782 18.1024 35.3103C19.8289 35.3607 21.5558 35.3534 23.2826 35.3461C24.2496 35.342 25.2165 35.338 26.1834 35.344C26.2601 35.3445 26.3368 35.345 26.4135 35.3455C27.3355 35.3516 28.2575 35.3577 29.1787 35.3392C30.3144 35.3167 31.414 35.1041 32.4351 34.5841C34.1042 33.7343 35.0604 32.3364 35.5001 30.5469C35.6955 29.754 35.7524 28.9459 35.754 28.1339C35.7572 26.285 35.7568 24.4361 35.7565 22.5872C35.7563 21.6628 35.7561 20.7383 35.7564 19.8139C35.7564 19.7949 35.7555 19.7757 35.7546 19.7564C35.7516 19.6949 35.7486 19.632 35.7748 19.5692C35.8345 19.5875 35.8576 19.6355 35.8797 19.6815C35.8867 19.6959 35.8935 19.7102 35.9014 19.7232C36.9851 21.5151 38.0686 23.3074 39.1521 25.0998C40.5171 27.3579 41.8821 29.616 43.2479 31.8733C44.2891 33.5938 45.7251 34.828 47.6608 35.4387C48.1534 35.5944 48.6579 35.6931 49.1737 35.7276C49.2089 35.7299 49.2437 35.737 49.2784 35.7441C49.2926 35.747 49.3068 35.7499 49.321 35.7525H49.9994C50.0853 35.7415 50.1714 35.7316 50.2575 35.7217C50.551 35.6878 50.8447 35.6539 51.1326 35.5807C53.3775 35.0086 54.7687 33.5698 55.3942 31.3614C55.5936 30.656 55.6609 29.9298 55.6609 29.1971V19.8011V19.5483C55.7404 19.585 55.7692 19.6411 55.7959 19.6931C55.803 19.7071 55.81 19.7207 55.8178 19.7337C56.6884 21.1774 57.5584 22.6215 58.4283 24.0657C60.0042 26.6815 61.5801 29.2975 63.1596 31.9111C64.1935 33.6211 65.6351 34.8336 67.5565 35.4395C68.049 35.5944 68.5528 35.6939 69.0694 35.7276C69.1046 35.7298 69.1394 35.737 69.1741 35.7441C69.1883 35.747 69.2025 35.7499 69.2167 35.7525H69.8951C69.9893 35.7403 70.0838 35.7296 70.1784 35.7189C70.451 35.688 70.7239 35.6571 70.9915 35.5904C73.2924 35.0174 74.7084 33.5497 75.3243 31.2811C75.4845 30.6905 75.5597 30.0855 75.5597 29.4724C75.5605 19.781 75.5605 10.0888 75.5605 0.397488C75.5605 0.120638 75.5598 0.11903 75.2746 0.11903H71.3935C71.0956 0.11903 71.0948 0.119835 71.0948 0.427982V14.6163C71.0948 15.6422 71.0947 16.6681 71.0946 17.6939C71.0944 21.2969 71.0941 24.9002 71.0972 28.503C71.098 28.9764 71.0331 29.429 70.8049 29.8503C70.2859 30.8077 69.1703 31.1174 68.2348 30.5621C67.9265 30.3792 67.6758 30.1376 67.486 29.8327C66.6889 28.5536 65.8914 27.2747 65.0939 25.9958C63.3834 23.2527 61.6729 20.5097 59.9664 17.7644C58.3998 15.2448 56.8375 12.7227 55.2752 10.2004C54.5238 8.9873 53.7723 7.77413 53.0203 6.56121C52.9547 6.45449 52.8866 6.34856 52.8081 6.25066C52.5326 5.90801 52.1586 5.78122 51.791 5.89757C51.4282 6.01233 51.1887 6.34054 51.1599 6.77387C51.1511 6.90637 51.1514 7.03886 51.1517 7.17135C51.1518 7.19614 51.1519 7.22093 51.1519 7.24571C51.1515 10.0609 51.1515 12.8763 51.1514 15.6917C51.1513 19.9015 51.1512 24.1113 51.1503 28.3208C51.1503 28.7108 51.1319 29.1008 51.0077 29.4764C50.8908 29.8287 50.7122 30.1432 50.4399 30.3976C49.8777 30.924 49.0527 31.0019 48.3624 30.599C48.0068 30.3912 47.7329 30.1007 47.5174 29.754C46.8047 28.6089 46.0919 27.4637 45.379 26.3185C42.5708 21.807 39.7623 17.2952 36.9569 12.7819C36.0947 11.3949 35.2369 10.0051 34.3791 8.61525C33.9262 7.8815 33.4733 7.14774 33.0198 6.41436C32.9701 6.33492 32.9181 6.25467 32.8548 6.18566C32.6009 5.90961 32.3022 5.75153 31.9145 5.86146C31.5229 5.97301 31.3355 6.25949 31.2666 6.63985C31.233 6.82603 31.229 7.01461 31.229 7.20399C31.2295 9.54723 31.2296 11.8904 31.2297 14.2335C31.2299 18.9219 31.23 23.6101 31.2338 28.2984C31.2338 28.9588 31.056 29.539 30.6083 30.0253C30.1518 30.522 29.5815 30.794 28.9072 30.7948C28.1869 30.796 27.4667 30.7976 26.7464 30.7992C23.918 30.8055 21.0896 30.8118 18.2618 30.79C16.0457 30.7732 13.9018 30.3479 11.9067 29.344C8.48294 27.6211 6.36859 24.8389 5.40032 21.1548C5.05914 19.8572 4.92379 18.5316 4.98706 17.1931C5.13522 14.049 6.12833 11.2187 8.21144 8.82336C10.0126 6.753 12.3 5.51079 14.9661 4.93783C16.0698 4.7003 17.1878 4.61684 18.3146 4.62005C19.6755 4.62402 21.0368 4.62319 22.3979 4.62235C22.9649 4.62201 23.5318 4.62166 24.0987 4.62166C24.4214 4.62166 24.4222 4.62005 24.4222 4.29666V0.448043C24.4222 0.12144 24.4214 0.120637 24.1059 0.120637C23.5326 0.121126 22.9592 0.119448 22.386 0.117769C21.0812 0.113949 19.7766 0.11013 18.4724 0.131872C15.4427 0.182427 12.521 0.749768 9.78919 2.11636C6.41105 3.80635 3.90906 6.36702 2.27525 9.77508C1.40549 11.5887 0.876906 13.5009 0.659064 15.4999C0.635686 15.7149 0.614419 15.9304 0.593163 16.1457C0.582379 16.2549 0.571599 16.3641 0.560547 16.4733Z" fill="black"/>
</svg>
