<svg width="118" height="31" viewBox="0 0 118 31" fill="none" xmlns="http://www.w3.org/2000/svg">
<path fill-rule="evenodd" clip-rule="evenodd" d="M67.0424 2.42751L67.0425 2.4258L67.0425 2.42409L67.0425 2.42238L67.0425 2.42068C67.0487 1.61377 67.0549 0.806886 67.0609 0C66.9604 0 66.8598 0 66.7613 0.004031L65.4924 0.248452L65.489 0.249093C64.2228 0.49307 62.9565 0.737045 61.6902 0.979325C60.6394 1.18083 59.5876 1.3773 58.5348 1.57075C58.2804 1.61709 58.0913 1.70374 58.0934 2.01104C58.0954 2.30323 58.2653 2.42514 58.5177 2.48357C58.579 2.49745 58.6397 2.51309 58.7005 2.52872L58.7005 2.52873C58.7853 2.55054 58.87 2.57235 58.9561 2.58937C59.9154 2.7808 60.4735 3.38431 60.7239 4.30218C60.8999 4.95002 60.9994 5.60996 61.0014 6.28198C61.0052 7.62019 61.0102 8.95848 61.0153 10.2968C61.0279 13.643 61.0405 16.9895 61.0326 20.3361C61.0309 21.0639 61.0337 21.7918 61.0365 22.5197V22.5198V22.5198V22.5198V22.5199V22.52C61.0452 24.7525 61.0539 26.9851 60.931 29.2165C60.916 29.4946 60.9743 29.6941 61.3011 29.7646C64.3037 30.4084 67.3234 30.9152 70.4054 30.5475C73.7278 30.1505 76.4579 28.6765 78.1864 25.7445C80.2217 22.2927 80.5605 18.58 79.4122 14.7624C78.8461 12.8793 77.7751 11.2773 76.1461 10.1207C73.5347 8.26683 70.7634 8.38471 67.9357 9.54741L67.8743 9.57263C67.4388 9.75161 67.2179 9.84238 67.1066 9.76837C66.9921 9.69222 66.9936 9.44166 66.9966 8.9333V8.93281C67.009 6.76397 67.0257 4.59567 67.0424 2.42751ZM73.4617 18.9215V18.9216V18.9217V18.9218V18.9219C73.46 19.0535 73.4583 19.185 73.4583 19.3165C73.5065 21.656 73.1234 23.9139 72.1641 26.0589C71.8695 26.7188 71.4844 27.3213 70.9947 27.8614C70.16 28.7813 69.1153 29.0865 67.9106 28.9807C67.4933 28.9445 67.2992 28.7682 67.2872 28.3158C67.1373 22.8617 67.1605 17.4075 67.1836 11.9524V11.952V11.9516V11.9512V11.9508V11.9504C67.1846 11.5776 67.3234 11.4224 67.6743 11.3328C69.7317 10.8048 71.1495 11.4093 72.2235 13.2954C73.0591 14.7634 73.3758 16.3876 73.4553 18.0611C73.469 18.3476 73.4654 18.6346 73.4617 18.9215ZM117.927 24.7145C117.951 24.6107 117.975 24.507 118 24.4035V22.595C117.991 22.5581 117.982 22.5212 117.972 22.4843L117.972 22.484L117.972 22.4837L117.972 22.4834C117.952 22.4077 117.933 22.3318 117.919 22.2555C117.655 20.857 116.956 19.7406 115.777 18.9296C114.973 18.3764 114.104 17.9462 113.218 17.5493C112.973 17.4399 112.728 17.333 112.483 17.2262L112.482 17.226C111.423 16.7649 110.365 16.304 109.407 15.644C108.79 15.2208 108.207 14.7302 108.017 13.9826C107.492 11.9141 108.561 9.41945 111.719 10.032C113.286 10.3353 114.235 11.4124 114.953 12.7393C115.311 13.4022 115.604 14.0974 115.852 14.8088C115.982 15.1805 116.199 15.24 116.552 15.1211C116.879 15.0113 116.922 14.7876 116.921 14.4974C116.92 14.2691 116.92 14.0408 116.92 13.8125C116.919 12.5184 116.919 11.2246 116.832 9.93229C116.813 9.65521 116.706 9.49703 116.455 9.4134C116.17 9.31769 115.884 9.22197 115.601 9.12122C113.681 8.43811 111.686 8.45524 109.693 8.51267C107.405 8.57916 105.465 9.44968 103.94 11.1665C102.155 13.1776 101.727 17.2329 104.331 19.5391C105.28 20.3784 106.404 20.8812 107.564 21.3245C108.723 21.7668 109.872 22.2343 110.923 22.8993C112.254 23.7416 112.575 24.9204 112.291 26.2292C111.984 27.6528 110.783 28.5989 109.412 28.7087C107.482 28.8629 105.998 28.0992 104.844 26.5989C104.134 25.675 103.638 24.6352 103.186 23.5693L103.18 23.555C103.064 23.2796 102.947 23.0037 102.539 23.1018C102.134 23.1985 102.087 23.4705 102.097 23.8222C102.122 24.6941 102.141 25.5664 102.159 26.4387L102.159 26.4395L102.159 26.4404L102.16 26.4412L102.16 26.4421C102.17 26.9565 102.181 27.471 102.194 27.9853C102.199 28.2064 102.197 28.3941 102.194 28.555C102.182 29.4673 102.182 29.516 103.666 29.8946C106.479 30.612 109.327 31.0029 112.203 30.3419C114.944 29.7122 117 28.2493 117.767 25.3768C117.825 25.1575 117.876 24.9364 117.927 24.7153L117.927 24.7145ZM14.5667 0.569249L14.567 0.569249H14.567C17.4221 0.570699 20.2771 0.572149 23.1315 0.558281C23.6141 0.556266 23.8575 0.671126 23.8203 1.18598C23.8127 1.29039 23.8266 1.39581 23.8404 1.50147C23.8506 1.57931 23.8608 1.65729 23.8625 1.73508C23.9047 3.89222 23.945 6.05036 23.9812 8.2085C23.9892 8.7163 23.2602 9.24929 22.7745 9.09916C22.6152 9.04985 22.5749 8.91458 22.5353 8.7819C22.5272 8.75463 22.5191 8.72747 22.51 8.70119C22.2104 7.82967 21.8413 6.98737 21.4099 6.17328C20.5442 4.53906 19.3063 3.33404 17.5023 2.77486C17.26 2.7003 17.0237 2.64187 16.7673 2.64187L16.4898 2.64171C14.8246 2.64081 13.1594 2.6399 11.4941 2.62272C11.108 2.61869 10.929 2.70534 10.9109 3.14462C10.7661 6.73851 10.7017 10.3344 10.7048 13.9313C10.7058 14.6195 10.7249 14.6547 11.4127 14.6225C12.4645 14.5731 13.5173 14.5117 14.5661 14.4159C15.2107 14.3565 15.7295 14.0129 16.1378 13.5152C16.7703 12.7444 17.1072 11.8336 17.2872 10.8734C17.3781 10.3887 17.6675 10.4029 17.9629 10.4174C18.0335 10.4209 18.1044 10.4244 18.1731 10.4211C18.5592 10.402 18.5577 10.6709 18.5563 10.929L18.5562 10.9752C18.5572 13.9374 18.5572 16.8995 18.5552 19.8607C18.5552 19.8813 18.5555 19.9026 18.5558 19.9241L18.5558 19.9244C18.5591 20.142 18.5629 20.3926 18.2465 20.3725C18.1795 20.3683 18.1083 20.3709 18.036 20.3735C17.7608 20.3834 17.4703 20.3938 17.3445 20.034C17.2785 19.8464 17.2289 19.653 17.1792 19.4595L17.1792 19.4594L17.1792 19.4594L17.1792 19.4594C17.1539 19.3609 17.1286 19.2623 17.1011 19.1645C16.9322 18.563 16.6778 17.9997 16.3128 17.4929C15.7617 16.7282 15.0377 16.3111 14.0643 16.2819C13.7234 16.2714 13.3824 16.2554 13.0414 16.2394C12.4299 16.2107 11.8181 16.1819 11.2055 16.1852C10.927 16.1862 10.7058 16.2174 10.7078 16.5781C10.7089 16.8308 10.7098 17.0835 10.7107 17.3362C10.7204 20.1939 10.7302 23.0516 11.1432 25.8898C11.2025 26.2998 11.3312 26.7069 11.4791 27.0948C11.7908 27.9099 12.3378 28.4761 13.2368 28.6444C13.441 28.6823 13.644 28.7305 13.8467 28.7786L13.8468 28.7786C14.166 28.8543 14.485 28.93 14.8085 28.9658C15.269 29.0171 15.3394 29.262 15.3354 29.6428C15.3309 30.0708 15.0647 30.0651 14.7959 30.0593L14.7958 30.0593C14.7647 30.0586 14.7336 30.0579 14.7029 30.0579C10.4333 30.0589 6.16467 30.0589 1.89507 30.0589C1.66127 30.0589 1.42748 30.0587 1.19356 30.0584H1.19318H1.19281H1.19243C0.957885 30.0582 0.723213 30.0579 0.48829 30.0579C0.240922 30.0579 -0.000408226 30.0499 0.0146752 29.7033C0.0171242 29.647 0.0146674 29.5884 0.0122111 29.5299C0.00155629 29.2758 -0.00908953 29.0219 0.3807 28.9597C0.510046 28.9391 0.638627 28.9119 0.767193 28.8848L0.767236 28.8847C0.933506 28.8496 1.09975 28.8145 1.2676 28.7935C2.58488 28.6262 3.37122 27.8756 3.7282 26.6172C3.96249 25.791 4.06104 24.9437 4.12037 24.0943C4.1907 23.0786 4.21284 22.0579 4.23494 21.0391L4.235 21.0365C4.25629 20.0198 4.27194 19.0029 4.2876 17.986L4.2876 17.9858C4.30079 17.1293 4.31398 16.2727 4.33053 15.4164C4.36803 13.4774 4.31307 11.5389 4.25813 9.60113C4.24384 9.09725 4.22956 8.59341 4.2169 8.08961C4.18673 6.89065 4.11433 5.68462 3.85289 4.50278C3.4577 2.71441 2.6804 2.01518 0.847269 1.82878C0.0508659 1.74717 -0.039628 1.63937 0.0116555 0.930062C0.0297556 0.675155 0.130315 0.566339 0.379694 0.572385C0.527673 0.575566 0.675652 0.573925 0.823631 0.572285C0.909947 0.571328 0.996262 0.570371 1.08258 0.570371C4.69654 0.568357 8.3105 0.568357 11.9255 0.568357H11.9316C12.8099 0.568357 13.6883 0.568803 14.5667 0.569249ZM21.3295 22.46C22.2013 27.4725 25.947 30.6725 30.8672 30.6654C31.0329 30.6544 31.1985 30.6438 31.3641 30.6331L31.3645 30.6331C31.6994 30.6115 32.0342 30.5899 32.3685 30.5657C35.8789 30.3098 38.5718 28.6574 40.235 25.5874C42.2351 21.8958 42.2683 18.0077 40.7257 14.1489C39.6548 11.4708 37.6759 9.66433 34.8613 8.86536C33.4656 8.4694 32.0387 8.37368 30.5877 8.49559C26.5936 8.8311 23.7318 10.7887 22.0897 14.4421C20.9333 17.0143 20.8539 19.7246 21.3295 22.46ZM34.7728 14.6506C35.1318 16.3765 35.2243 18.1266 35.1931 19.7175C35.2052 21.9281 35.1228 23.9623 34.5818 25.9481C34.3545 26.7783 34.0237 27.5602 33.4304 28.205C32.2891 29.4463 30.6219 29.3919 29.558 28.073C28.8832 27.2358 28.5162 26.2494 28.2306 25.2298C27.8184 23.7567 27.6343 22.2485 27.6142 20.7241L27.6128 20.6193C27.583 18.4163 27.5531 16.2091 28.0114 14.034C28.2186 13.0486 28.5001 12.0885 29.0592 11.2331C30.0175 9.7671 31.7732 9.58172 32.998 10.8391C34.0297 11.8991 34.4802 13.2451 34.7728 14.6506ZM94.2739 18.5054C93.6126 18.5248 92.8926 18.5187 92.1376 18.5123C91.0143 18.5027 89.8135 18.4925 88.6126 18.5648C88.1712 18.591 88.0444 18.7482 88.0626 19.1784C88.1289 20.7613 88.334 22.3129 89.0027 23.7667C90.0998 26.1526 92.0355 27.3505 94.5926 27.5823C96.3222 27.7395 97.9592 27.4261 99.4133 26.3994C99.6063 26.2634 99.8527 26.0982 100.085 26.3672C100.314 26.6322 100.245 26.8901 100.047 27.137C99.9844 27.2155 99.9181 27.2911 99.8507 27.3657C98.7697 28.5475 97.4967 29.4694 95.9783 29.9792C91.8796 31.3555 88.1169 30.758 84.9473 27.7395C82.9362 25.8241 82.0543 23.3254 81.9226 20.5628C81.818 18.3603 82.0332 16.2022 83.0277 14.2062C84.712 10.8259 87.3898 8.83405 91.222 8.49451C92.4206 8.38872 93.5961 8.44817 94.7505 8.77058C97.2282 9.46376 98.822 11.1212 99.7602 13.4586C100.339 14.9014 100.579 16.4158 100.655 17.9623C100.676 18.3805 100.519 18.5165 100.108 18.5134C98.7559 18.5015 97.4032 18.5028 95.9021 18.5043L95.8987 18.5043C95.3771 18.5049 94.8375 18.5054 94.2739 18.5054ZM89.2411 16.7563C89.4385 16.7563 89.636 16.7577 89.8334 16.759C90.2704 16.7621 90.7072 16.7651 91.1436 16.7533C91.4489 16.7449 91.7543 16.7449 92.0597 16.7448C92.6396 16.7447 93.2197 16.7445 93.7993 16.6878C94.1713 16.6515 94.2668 16.4954 94.2719 16.1478C94.2809 15.4939 94.2296 14.844 94.1472 14.1992C94.0054 13.0879 93.8264 11.9786 93.2321 10.9962C92.5554 9.87584 91.3628 9.71061 90.3985 10.5982C89.8323 11.1191 89.4804 11.7821 89.1918 12.4823C88.7599 13.5303 88.5683 14.6364 88.3763 15.7451L88.3703 15.78L88.3659 15.8047C88.2752 16.3245 88.2298 16.5844 88.3386 16.7034C88.4474 16.8224 88.7102 16.8005 89.236 16.7567L89.2411 16.7563ZM51.195 12.6844C51.1199 12.8081 51.0401 12.9396 50.9531 13.0839C50.9531 12.6714 50.9517 12.2691 50.9504 11.8741C50.9471 10.9105 50.944 9.98994 50.9611 9.06886C50.9712 8.49356 50.946 8.43814 50.395 8.54897C49.8327 8.66253 49.2703 8.77579 48.7078 8.88906C47.4835 9.13558 46.259 9.38217 45.0353 9.63207C44.424 9.757 43.8135 9.8873 43.2031 10.0176C42.8978 10.0828 42.5925 10.1479 42.2872 10.2124C42.0378 10.2658 41.9151 10.4109 41.9181 10.6708C41.9211 10.9177 42.0549 11.0346 42.2791 11.0769C42.3265 11.0859 42.3739 11.0951 42.4214 11.1044C42.5541 11.1302 42.687 11.1561 42.8211 11.1776C43.9041 11.3509 44.3938 11.8194 44.6371 12.8985C44.8691 13.9261 44.8893 14.9752 44.9092 16.0161C44.91 16.058 44.9109 16.0999 44.9117 16.1418C44.9539 18.3332 44.9469 20.5266 44.9147 22.7179C44.8946 24.0539 44.8533 25.397 44.7035 26.7229C44.5466 28.1103 44.0328 28.7229 42.7658 28.9072C42.7072 28.9157 42.6494 28.9304 42.5917 28.9451C42.5188 28.9637 42.4462 28.9822 42.3726 28.9878C41.9048 29.0251 41.9119 29.3455 41.919 29.6696C41.9194 29.6875 41.9198 29.7054 41.9201 29.7233C41.9263 30.0711 42.1574 30.0637 42.375 30.0567C42.4052 30.0558 42.4351 30.0548 42.4641 30.0548C44.0785 30.0565 45.6927 30.0568 47.3068 30.0571C49.5264 30.0574 51.7459 30.0578 53.9657 30.0619C54.3237 30.0619 54.5309 29.9903 54.5319 29.5692C54.5339 29.1682 54.4051 28.9818 53.9868 28.9868C53.8065 28.9888 53.6262 28.9632 53.4459 28.9377C53.3437 28.9232 53.2414 28.9087 53.1391 28.8992C51.8681 28.7813 51.3322 28.3269 51.114 27.0776C50.8419 25.5242 50.8316 23.9513 50.8214 22.3806C50.8207 22.2794 50.82 22.1783 50.8193 22.0772C50.8088 20.637 50.8105 19.1963 50.8122 17.7558C50.8129 17.1214 50.8136 16.4869 50.8133 15.8526C50.8133 14.4965 50.9269 14.3383 52.2251 13.8849C52.3357 13.8466 52.4473 13.8083 52.562 13.7861C53.9929 13.5091 55.3614 13.7096 56.6566 14.3645C57.0638 14.57 57.2861 14.5801 57.4661 14.0743C58.0171 12.5308 58.6104 11.0023 59.2087 9.4759C59.3696 9.06584 59.26 8.8613 58.8638 8.71521C57.6139 8.25275 56.367 8.27089 55.1372 8.75249C53.4981 9.39429 52.4101 10.6426 51.5383 12.1146C51.4295 12.2983 51.3187 12.4808 51.195 12.6844Z" fill="black"/>
</svg>
