<svg width="180" height="19" viewBox="0 0 180 19" fill="none" xmlns="http://www.w3.org/2000/svg">
<path fill-rule="evenodd" clip-rule="evenodd" d="M142.99 18.6892L142.991 18.6895C143.131 18.735 143.271 18.7804 143.411 18.8248H147.216C149.313 18.3175 151.265 17.5162 152.944 16.1143C155.712 13.8009 156.909 10.1831 155.844 7.05569C154.576 3.33332 151.684 1.28136 148.091 0.371262C144.313 -0.585473 140.785 0.321806 137.787 2.92068C134.449 5.81632 133.335 10.2453 136.198 14.28C137.648 16.3249 139.639 17.6957 142.072 18.4023C142.38 18.4913 142.685 18.5903 142.99 18.6892ZM150.169 8.84622V9.6164C150.191 11.4196 150.093 13.1989 149.48 14.9315C148.382 18.0348 144.294 18.3189 142.522 16.6612C141.763 15.9532 141.264 15.0728 141.058 14.0751C140.436 11.0692 140.385 8.052 141.048 5.0433C141.24 4.17559 141.515 3.32909 142.139 2.6451C144.294 0.277995 148.342 1.03547 149.456 4.02439C150.035 5.5789 150.172 7.20408 150.169 8.84622ZM3.06016 0.481057C2.34623 0.473376 1.62051 0.465569 0.929688 0.730126V1.43248C1.48107 1.75626 2.08464 1.73969 2.682 1.72329C2.786 1.72044 2.88982 1.71759 2.99314 1.71654C3.60245 1.70947 3.88312 1.88753 3.8803 2.55457C3.85773 7.15878 3.85773 11.7616 3.86902 16.3658C3.87043 16.9438 3.64335 17.1487 3.07777 17.1515L2.95923 17.1521C2.27556 17.1553 1.58442 17.1584 0.931098 17.4243V18.1252C1.18215 18.3754 1.49386 18.4305 1.83518 18.4305H1.83555H1.83592H1.83629H1.83666H1.83703H1.8374H1.83777C7.11613 18.4248 12.3959 18.4192 17.6743 18.4305C18.2229 18.4305 18.4246 18.2242 18.4204 17.6871C18.4116 16.4309 18.4163 15.1746 18.421 13.9184C18.4231 13.353 18.4252 12.7876 18.426 12.2223C18.426 12.129 18.4204 12.0357 18.4119 11.9425C18.371 11.5143 18.1848 11.2344 17.7039 11.2514C17.2497 11.267 17.0212 11.5129 16.986 11.9509C16.98 12.0277 16.9768 12.1049 16.9737 12.182L16.9737 12.1821L16.9737 12.1822L16.9737 12.1823L16.9736 12.1824L16.9736 12.1825L16.9736 12.1826C16.9701 12.2685 16.9666 12.3544 16.9592 12.4399C16.804 14.2121 16.0636 15.6154 14.4049 16.435C13.0636 17.0964 11.6151 17.1996 10.1567 17.2222C9.73357 17.2278 9.54739 16.9848 9.52483 16.5523C9.34351 13.1301 9.41085 9.70788 9.4782 6.28565C9.5041 4.96941 9.53 3.65317 9.54175 2.33694C9.54598 1.88471 9.74062 1.7123 10.1821 1.7236C10.7448 1.73773 11.309 1.73349 11.8718 1.71229C12.2413 1.69816 12.5855 1.61761 12.5699 1.12299C12.5558 0.662288 12.2879 0.554888 11.8732 0.552061C10.9174 0.544743 9.96179 0.530857 9.00629 0.516973C7.19393 0.490638 5.38197 0.464309 3.57001 0.482816C3.40116 0.484726 3.231 0.482895 3.06016 0.481057ZM108.882 18.8248C108.771 18.7965 108.659 18.7685 108.548 18.7405C107.411 18.455 106.276 18.1702 105.228 17.6052C102.139 15.939 99.9542 13.5634 99.6326 9.96541C99.4168 7.55025 100.373 5.40784 102.047 3.66253C102.965 2.70438 104.008 1.84514 105.226 1.2516C108.545 -0.365104 111.879 -0.288788 115.215 1.19366C115.885 1.49185 116.472 1.55262 116.96 0.879935C117.082 0.711764 117.274 0.573267 117.508 0.646753C117.757 0.724479 117.781 0.956243 117.778 1.16681C117.771 1.79872 117.806 2.43004 117.84 3.06136C117.897 4.13278 117.955 5.20417 117.816 6.27836C117.813 6.3026 117.81 6.32687 117.807 6.35107C117.766 6.68952 117.727 7.01342 117.267 7.01606C116.841 7.01889 116.476 6.8917 116.35 6.41686C116.128 5.57883 115.838 4.77472 115.415 4.00594C114.326 2.02745 112.64 1.13007 110.271 1.33357C108.298 1.50315 106.864 2.67894 106.253 4.81287C105.394 7.82017 105.379 10.8713 106.202 13.8842C107.006 16.8279 109.054 18.0263 112.081 17.4639C114.387 17.0357 115.946 15.5334 116.456 13.2483L116.482 13.1334C116.52 12.9665 116.557 12.7993 116.603 12.635C116.737 12.1559 117.099 12.0598 117.538 12.0951C118.032 12.1361 118.078 12.488 118.044 12.8554C117.867 14.7943 117.063 16.3898 115.432 17.5246C114.473 18.1931 113.387 18.5534 112.264 18.8234C111.137 18.8248 110.011 18.8248 108.882 18.8248ZM162.187 4.65751C162.193 4.57358 162.199 4.48368 162.205 4.38468C162.56 4.51196 162.743 4.7336 162.915 4.94057C162.949 4.98178 162.983 5.02241 163.017 5.0616C163.809 5.96852 164.603 6.87448 165.396 7.78041L165.396 7.78073L165.396 7.78104L165.397 7.78193L165.399 7.7834L165.399 7.78425L165.4 7.78495C168.183 10.9628 170.966 14.1405 173.7 17.3593C174.473 18.2694 175.306 18.5323 176.401 18.4206C176.814 18.3782 176.975 18.2072 176.983 17.8044C176.993 17.3335 177.011 16.8627 177.029 16.3922C177.053 15.7656 177.078 15.1394 177.082 14.5131C177.101 11.8429 177.109 9.17189 177.117 6.50126V6.50044V6.49962V6.4988V6.49798L177.117 6.41235C177.12 5.49003 177.122 4.56775 177.126 3.64557C177.13 2.43445 177.543 1.95114 178.764 1.74764C178.882 1.72767 179.001 1.71944 179.12 1.71121C179.212 1.70488 179.304 1.69855 179.395 1.68687C179.718 1.64447 179.898 1.45652 179.927 1.1329C179.956 0.786663 179.769 0.615665 179.447 0.557723C179.406 0.550205 179.365 0.541329 179.325 0.532445C179.227 0.51127 179.129 0.49005 179.031 0.487063C177.106 0.423469 175.182 0.393795 173.261 0.560552C172.962 0.58599 172.766 0.713179 172.762 1.02974C172.759 1.31803 172.89 1.52859 173.19 1.58794C173.465 1.64306 173.743 1.6897 174.023 1.72503C175.382 1.89744 175.769 2.30303 175.786 3.67383C175.802 4.97691 175.8 6.27999 175.797 7.58306C175.796 7.93909 175.796 8.29511 175.795 8.65114C175.795 9.16554 175.787 9.67995 175.77 10.1929L175.77 10.2015C175.764 10.3598 175.757 10.5574 175.597 10.6268C175.446 10.6907 175.349 10.5757 175.261 10.471L175.261 10.4707L175.261 10.4706C175.24 10.4459 175.219 10.4217 175.199 10.4007C174.889 10.0827 174.585 9.75767 174.292 9.42274C171.827 6.60482 169.363 3.78547 166.903 0.960483C166.69 0.715999 166.456 0.577509 166.126 0.549244C164.496 0.410131 162.863 0.42439 161.23 0.438648C160.374 0.446116 159.519 0.453584 158.664 0.43901C158.236 0.431944 158.083 0.658058 158.102 1.05799C158.123 1.51305 158.364 1.6784 158.805 1.76177C159.968 1.98082 160.57 2.55175 160.587 3.42511C160.602 4.18617 160.621 4.94718 160.64 5.70817V5.70849V5.70881V5.70914V5.70946C160.716 8.73079 160.791 11.7518 160.616 14.7745L160.612 14.8489C160.495 16.8592 160.495 16.8708 158.492 17.2547C158.128 17.324 157.955 17.5133 157.941 17.8624C157.924 18.2652 158.186 18.3952 158.529 18.3966L159.099 18.3978C160.905 18.4019 162.711 18.406 164.516 18.3881C165.013 18.3839 165.251 17.9401 165.054 17.5063C164.927 17.2276 164.699 17.2404 164.478 17.2528C164.423 17.2559 164.368 17.2589 164.316 17.2575C162.513 17.2123 162.175 16.8958 162.168 15.1066C162.158 12.4702 162.161 9.83374 162.164 7.19729V7.18814C162.165 6.48542 162.166 5.7827 162.167 5.07997C162.167 4.94628 162.177 4.812 162.187 4.65751ZM57.1717 9.62783V4.08808C57.1717 2.75825 56.623 2.07285 55.3226 1.76901C55.2704 1.75685 55.2175 1.74608 55.1645 1.7353C55.033 1.70853 54.9013 1.68171 54.7796 1.63334C54.4933 1.51887 54.4481 1.26591 54.4693 0.991752C54.4919 0.707698 54.6653 0.584751 54.9319 0.560727C55.0662 0.549194 55.2003 0.535209 55.3344 0.521229C55.644 0.488955 55.9533 0.456709 56.2634 0.454736C56.9768 0.449907 57.6902 0.45119 58.4036 0.452473C59.5689 0.454568 60.7341 0.456664 61.8994 0.43212C62.599 0.417988 63.1237 0.64834 63.5665 1.15568C66.1349 4.10221 68.7061 7.04874 71.2802 9.99103C71.3372 10.056 71.3927 10.1361 71.4492 10.2176L71.4493 10.2177L71.4494 10.2178C71.6152 10.4569 71.7894 10.7081 72.0333 10.627C72.2994 10.5384 72.2659 10.2286 72.2347 9.93974L72.2346 9.93962C72.2245 9.84577 72.2146 9.75415 72.2153 9.67306C72.2308 7.75675 72.2322 5.84045 72.2153 3.92273C72.2012 2.15906 71.8401 1.80435 70.07 1.71955C70.0226 1.71726 69.974 1.71735 69.9253 1.71744C69.6741 1.71791 69.4192 1.71838 69.2999 1.39169C69.0982 0.839128 69.3239 0.461797 69.9191 0.457557C71.2163 0.446958 72.5129 0.446215 73.8097 0.445471C74.4149 0.445124 75.0202 0.444777 75.6257 0.443428C76.0291 0.442015 76.3239 0.563547 76.321 1.03132C76.3182 1.45104 76.1095 1.68987 75.6793 1.70259C75.2745 1.71389 74.8951 1.79304 74.527 1.97534C73.8598 2.30603 73.5185 2.75684 73.5256 3.5652C73.5515 7.11014 73.5476 10.6551 73.5438 14.2C73.5426 15.2833 73.5414 16.3666 73.5411 17.4499C73.5411 18.3679 73.5244 18.3691 72.6869 18.431L72.5594 18.4406C71.5171 18.5197 70.8218 18.1169 70.1476 17.334C67.358 14.0927 64.5379 10.877 61.7176 7.66107C60.8489 6.67055 59.9802 5.68001 59.1124 4.68869C59.0873 4.6602 59.0633 4.62671 59.0389 4.59271C58.9603 4.48335 58.878 4.3688 58.7457 4.39898C58.5577 4.44272 58.5624 4.60926 58.5667 4.76231V4.76241C58.5678 4.8022 58.5689 4.84108 58.5666 4.87665C58.4039 7.44946 58.4331 10.0246 58.4622 12.5997C58.4727 13.5297 58.4833 14.4596 58.4848 15.3895C58.4848 15.4864 58.5041 15.5833 58.5235 15.6803L58.5235 15.6803C58.5318 15.7219 58.5401 15.7634 58.5468 15.8049C58.6978 16.7235 58.946 16.9836 59.8881 17.1531C60.1286 17.1964 60.3725 17.2178 60.6165 17.2392C60.7231 17.2485 60.8297 17.2578 60.9361 17.269C61.2746 17.3043 61.5271 17.4287 61.5299 17.8202C61.5327 18.206 61.2901 18.3529 60.9502 18.3883C60.764 18.4081 60.575 18.4151 60.3874 18.4165C58.6963 18.4208 57.0052 18.4236 55.3155 18.4236C55.2859 18.4236 55.2562 18.4239 55.2264 18.4242C54.855 18.4278 54.485 18.4313 54.4524 17.8753C54.4171 17.2916 54.7923 17.2393 55.2239 17.2309C55.2983 17.2297 55.3728 17.2177 55.4473 17.2058C55.4659 17.2028 55.4845 17.1998 55.5031 17.1969C56.7753 17.0189 57.1322 16.6444 57.1435 15.3782C57.1553 14.0371 57.1526 12.6961 57.15 11.3546V11.3543V11.354V11.3538L57.15 11.3483C57.1488 10.7749 57.1477 10.2014 57.1477 9.62783H57.1717ZM92.8556 18.4025L94.105 18.4024V18.4193C94.5277 18.4193 94.9503 18.4195 95.3728 18.4197H95.373H95.3733C96.6411 18.4202 97.9083 18.4207 99.1755 18.4165C99.206 18.4163 99.2374 18.417 99.2692 18.4177H99.2693H99.2693C99.4947 18.4227 99.7388 18.428 99.813 18.1296C99.8764 17.8738 99.8327 17.594 99.6663 17.3962C99.4986 17.1954 99.2481 17.2193 99.0134 17.2416C98.9639 17.2463 98.9151 17.251 98.868 17.2534C97.8962 17.3029 97.2954 17.0104 96.8031 16.0282C95.4163 13.2586 93.9859 10.511 92.5556 7.76337L92.5555 7.7632L92.5554 7.76306C91.4489 5.63749 90.3424 3.51191 89.2559 1.37611C88.8762 0.629713 88.3305 0.605881 87.7293 0.579625C87.6316 0.575358 87.5324 0.571027 87.4323 0.563519C86.7849 0.515471 86.4266 0.741588 86.1333 1.34644C84.9488 3.78908 83.7485 6.22382 82.5483 8.65855C81.5375 10.7089 80.5267 12.7592 79.5254 14.8142C78.902 16.0946 78.2024 17.1941 76.555 17.1941C76.1347 17.1941 75.9401 17.5092 75.9613 17.9162C75.9838 18.3585 76.3125 18.4179 76.6637 18.4193C77.7201 18.425 78.7765 18.4306 79.8329 18.4292C80.6298 18.4278 81.4281 18.4207 82.2264 18.408C82.6241 18.4009 82.9922 18.3402 83.0007 17.8145C83.0092 17.2676 82.6368 17.2421 82.2348 17.2492L82.1298 17.2513L82.1297 17.2513C81.9303 17.2554 81.7301 17.2596 81.531 17.2464C80.6622 17.1898 80.2715 16.6203 80.5762 15.8021C80.6697 15.5526 80.7889 15.3122 80.908 15.0719L80.9081 15.0717C81.0387 14.8083 81.1693 14.545 81.2659 14.2702C81.4605 13.7176 81.8159 13.5028 82.3773 13.5056C84.4422 13.5169 86.5084 13.5212 88.5733 13.5169C88.9922 13.5155 89.2884 13.6582 89.4774 14.044C89.6497 14.3949 89.8282 14.7424 90.0066 15.0898L90.0069 15.0902C90.2345 15.5334 90.462 15.9762 90.6762 16.4253C90.9343 16.9665 90.7595 17.2153 90.1558 17.211C90.003 17.2098 89.8501 17.1979 89.6974 17.1859C89.4992 17.1705 89.3012 17.155 89.1036 17.163C88.6748 17.1799 88.3025 17.3142 88.311 17.8484C88.3194 18.391 88.7143 18.4009 89.105 18.4009C90.3555 18.4031 91.6052 18.4028 92.8553 18.4025H92.8554H92.8556ZM85.4168 12.2139V12.2281C85.2023 12.2281 84.9879 12.2276 84.7735 12.2272C84.238 12.226 83.7026 12.2248 83.1657 12.2309C82.5973 12.2351 82.4393 11.9765 82.6819 11.4833C83.256 10.309 83.8413 9.14024 84.428 7.97152C84.6481 7.53485 84.8737 7.09957 85.1163 6.67561C85.3702 6.23187 85.6241 6.25589 85.8484 6.71094C86.2386 7.5053 86.63 8.29912 87.0214 9.09306L87.0269 9.10419C87.2631 9.58341 87.4994 10.0627 87.7355 10.5421C87.8243 10.7218 87.9118 10.9023 87.9991 11.0827L87.9995 11.0836C88.0647 11.218 88.1297 11.3523 88.1953 11.4862C88.4365 11.9751 88.3335 12.2309 87.7369 12.2182C87.1958 12.2063 86.654 12.209 86.1124 12.2117H86.1123H86.1121C85.8803 12.2128 85.6484 12.2139 85.4168 12.2139ZM37.4082 18.4235C36.9853 18.4235 36.5625 18.4241 36.1398 18.4248H36.1396C35.0129 18.4265 33.8869 18.4281 32.7608 18.4179C32.6901 18.4172 32.6147 18.4212 32.5379 18.4253C32.1413 18.4465 31.7086 18.4697 31.7086 17.854C31.7086 17.3049 32.1126 17.2847 32.4995 17.2653L32.4995 17.2653C32.5687 17.2618 32.6373 17.2584 32.703 17.252C32.8483 17.2377 32.9932 17.2193 33.1379 17.201L33.1381 17.201C33.3657 17.1722 33.593 17.1434 33.8214 17.1304C34.2347 17.1064 34.308 16.9001 34.1473 16.5751C33.7002 15.6748 33.2432 14.7803 32.7848 13.8857C32.624 13.572 32.3363 13.5084 32.0119 13.5084C29.9456 13.5112 27.8807 13.5126 25.8145 13.5098C25.2263 13.5084 24.8497 13.7811 24.6269 14.3196C24.5209 14.576 24.4025 14.8268 24.2842 15.0776C24.1631 15.3341 24.0421 15.5906 23.9344 15.8529C23.6593 16.5199 23.9513 17.0188 24.6621 17.1177C25.0796 17.1757 25.5013 17.2195 25.9231 17.2378C26.3067 17.2548 26.4675 17.4272 26.4675 17.8045C26.4675 18.1776 26.2968 18.3854 25.9287 18.3967C25.1784 18.4179 24.4266 18.4263 23.6763 18.4278C23.005 18.4294 22.3343 18.4277 21.6634 18.426H21.6633L21.6612 18.426C21.1825 18.4247 20.7039 18.4235 20.2249 18.4235C19.7849 18.4235 19.5127 18.2596 19.4901 17.7749C19.4746 17.4597 19.5719 17.2689 19.9062 17.2647C21.4506 17.2477 22.2404 16.2698 22.8483 15.0233C24.3041 12.0431 25.7663 9.06602 27.2284 6.08914L27.2288 6.0885L27.2302 6.08561C27.932 4.65668 28.6338 3.2278 29.3349 1.79861C29.9583 0.529555 30.3546 0.337356 31.765 0.593145C32.2516 0.680764 32.4547 1.03265 32.6522 1.4128C33.1307 2.33004 33.61 3.24704 34.0892 4.16409L34.0934 4.17213L34.0943 4.1737C34.783 5.49151 35.4717 6.80943 36.1585 8.12834C36.5085 8.79965 36.8594 9.47054 37.2104 10.1415C38.3008 12.2262 39.3916 14.3114 40.4533 16.4111C40.765 17.0273 41.1712 17.2859 41.827 17.252C41.969 17.245 42.1109 17.2474 42.2529 17.2498C42.3691 17.2518 42.4852 17.2537 42.6014 17.2506C42.9751 17.2393 43.236 17.3212 43.2487 17.7777C43.26 18.2341 43.0527 18.4164 42.6211 18.4164C41.4628 18.4155 40.3051 18.4158 39.1472 18.4161H39.147C38.568 18.4163 37.9888 18.4164 37.4096 18.4164C37.4082 18.4179 37.4082 18.4207 37.4082 18.4235ZM28.7566 12.221V12.2026C28.9854 12.2026 29.2143 12.2041 29.4433 12.2055H29.4433C29.9638 12.2088 30.4843 12.2121 31.0034 12.1984C31.7763 12.1772 31.8779 12.0005 31.5323 11.3038L31.41 11.0573L31.4099 11.0571C30.7977 9.8235 30.1854 8.58947 29.5507 7.36662C29.4982 7.2657 29.4555 7.14638 29.4122 7.0254C29.2934 6.69406 29.1703 6.35024 28.8314 6.33781C28.4833 6.32622 28.385 6.63558 28.2861 6.94716C28.2403 7.09139 28.1943 7.23609 28.1233 7.34966C28.0522 7.46388 27.9952 7.58755 27.9383 7.71112L27.9383 7.71114C27.9072 7.77868 27.8761 7.84619 27.8427 7.91212C27.668 8.25601 27.4911 8.59884 27.3142 8.94171L27.3142 8.94175L27.3142 8.94181C26.9139 9.71765 26.5135 10.4937 26.1389 11.2826C25.7482 12.1051 25.8328 12.2097 26.72 12.2196C27.1864 12.2254 27.6535 12.2239 28.1203 12.2224H28.1205H28.1207C28.3327 12.2217 28.5447 12.221 28.7566 12.221ZM123.788 6.76897C123.779 7.63644 123.77 8.50071 123.801 9.3592C123.773 10.2659 123.78 11.168 123.786 12.067C123.797 13.4939 123.807 14.913 123.68 16.3305C123.619 16.9891 123.386 17.3297 122.68 17.2717C122.261 17.2378 121.832 17.2378 121.413 17.276C120.918 17.3198 120.693 17.8116 120.958 18.1917C121.127 18.4342 121.374 18.4277 121.614 18.4213C121.652 18.4203 121.69 18.4192 121.728 18.4192C124.169 18.4192 126.61 18.4136 129.051 18.4079L129.056 18.4079C129.876 18.4051 130.697 18.4009 131.518 18.3966L131.522 18.3966C131.874 18.3952 132.109 18.2666 132.118 17.8709C132.128 17.4498 131.905 17.2844 131.511 17.2802C131.264 17.2774 131.017 17.2721 130.771 17.2668C130.524 17.2615 130.278 17.2562 130.031 17.2533C129.584 17.2477 129.336 17.0626 129.323 16.5821C129.314 16.2527 129.294 15.9236 129.274 15.5946C129.246 15.1303 129.218 14.6663 129.221 14.2022C129.239 11.8019 129.267 9.40153 129.295 7.00118C129.309 5.87277 129.322 4.74436 129.334 3.61594L129.334 3.61169C129.355 1.66855 129.355 1.66709 131.32 1.60072C131.35 1.59966 131.381 1.5989 131.411 1.59814C131.789 1.58869 132.157 1.5795 132.14 1.01706C132.121 0.443303 131.728 0.429173 131.302 0.42776C128.085 0.416454 124.869 0.465915 121.653 0.567666C121.513 0.573319 121.371 0.584622 121.236 0.618539C120.972 0.684959 120.851 0.868681 120.856 1.13578C120.863 1.41842 121.021 1.57104 121.293 1.58376C121.643 1.59983 121.992 1.60076 122.341 1.60169C122.391 1.60182 122.441 1.60195 122.491 1.60213C123.443 1.60496 123.578 1.74062 123.674 2.66627C123.816 4.03506 123.802 5.40596 123.788 6.76897Z" fill="black"/>
</svg>
