<svg width="115" height="24" viewBox="0 0 115 24" fill="none" xmlns="http://www.w3.org/2000/svg">
<path fill-rule="evenodd" clip-rule="evenodd" d="M114.93 19.8854C114.702 20.0832 114.475 20.281 114.248 20.4796C112.246 22.2311 109.946 23.3447 107.313 23.756C106.51 23.8815 105.703 23.9495 104.892 23.9843C104.182 24.0148 103.475 24.0009 102.771 23.9416C101.093 23.8005 99.4753 23.4136 97.9317 22.7295C96.3228 22.0168 94.8965 21.0417 93.6972 19.7486C92.1231 18.0502 91.1326 16.0617 90.7778 13.7648C90.6743 13.0956 90.6264 12.422 90.6482 11.7458C90.7317 9.11683 91.604 6.7824 93.2928 4.76428C94.9643 2.76621 97.0959 1.46959 99.5658 0.701034C100.661 0.360324 101.783 0.156421 102.924 0.0596976C103.889 -0.0222123 104.856 -0.0134984 105.823 0.0474983C107.004 0.122437 108.168 0.295842 109.31 0.606925C111.209 1.12365 112.9 2.03686 114.411 3.28991C114.439 3.3136 114.467 3.33821 114.495 3.3628C114.548 3.41053 114.602 3.4582 114.661 3.49904C114.76 3.56788 114.745 3.61842 114.668 3.69684C113.846 4.52553 113.027 5.35682 112.207 6.18812L112 6.3977L112 6.39786L112 6.39794L112 6.39799C111.724 6.67778 111.447 6.95735 111.177 7.24249C111.086 7.33834 111.026 7.32963 110.931 7.25469C110.156 6.6395 109.336 6.09227 108.441 5.66355C107.391 5.16076 106.289 4.85491 105.126 4.76777C103.753 4.66495 102.416 4.80698 101.146 5.35944C98.8822 6.34497 97.3959 8.02064 96.8889 10.4544C96.4002 12.7993 96.9237 14.935 98.5082 16.7615C99.6623 18.0912 101.142 18.8641 102.87 19.1421C104.693 19.4349 106.474 19.2545 108.182 18.5164C109.143 18.1016 110.002 17.5204 110.826 16.8826C110.851 16.8632 110.876 16.844 110.901 16.8248C110.981 16.7636 111.061 16.7023 111.137 16.636C111.217 16.5654 111.276 16.5732 111.354 16.643C111.73 16.9806 112.108 17.3165 112.486 17.6525C112.656 17.803 112.825 17.9536 112.994 18.1043C113.317 18.3918 113.639 18.6796 113.962 18.9674C114.284 19.2551 114.607 19.5429 114.929 19.8305C114.93 19.847 114.93 19.8662 114.93 19.8854ZM85.6484 11.4721C86.1215 11.6333 86.5572 11.8015 86.9816 11.9975C87.793 12.3731 88.5488 12.8341 89.1723 13.485C89.9385 14.2849 90.3568 15.2469 90.4855 16.3431C90.5838 17.1823 90.5525 18.0127 90.3255 18.83C89.9759 20.0866 89.2263 21.0529 88.167 21.791C87.1547 22.4959 86.0181 22.9072 84.8266 23.18C83.9239 23.3874 83.0073 23.5041 82.0828 23.5573C81.4558 23.5939 80.8287 23.607 80.2008 23.6061C78.24 23.6056 76.2793 23.6056 74.3186 23.6056C72.3601 23.6056 70.4016 23.6056 68.4429 23.6052L68.4188 23.6051L68.3805 23.6047C68.3495 23.6042 68.3185 23.6038 68.2872 23.6043C68.2063 23.6061 68.1628 23.5721 68.1663 23.4867C68.1675 23.4582 68.1671 23.4296 68.1667 23.4014V23.4012V23.401C68.1665 23.3871 68.1663 23.3732 68.1663 23.3595V0.640832C68.1663 0.622065 68.1666 0.603299 68.1669 0.584477C68.1673 0.556105 68.1677 0.527608 68.1672 0.498796C68.1663 0.427343 68.2046 0.396845 68.2724 0.395974C68.2868 0.395974 68.3009 0.395538 68.315 0.395102C68.3292 0.394666 68.3433 0.394231 68.3577 0.394231C69.5298 0.394479 70.702 0.393875 71.8743 0.39327H71.8743H71.8744H71.8745H71.8745H71.8746H71.8747H71.8747C74.8058 0.391759 77.737 0.390247 80.6678 0.402073C82.1767 0.408172 83.6595 0.624276 85.0797 1.16802C85.9798 1.51221 86.8068 1.98014 87.5008 2.65634C88.4079 3.54079 88.9332 4.61346 89.0428 5.88306C89.1349 6.94615 88.9975 7.96741 88.4923 8.9207C88.0992 9.66224 87.533 10.2504 86.859 10.7393C86.5216 10.9833 86.1676 11.2011 85.7954 11.3876C85.7667 11.4014 85.7395 11.4177 85.7036 11.4393C85.6873 11.4491 85.6693 11.4599 85.6484 11.4721ZM77.5805 14.0488V14.0427L76.8639 14.0427C75.9085 14.0429 74.9527 14.043 73.9975 14.0409C73.8774 14.0409 73.8201 14.0636 73.8201 14.2039C73.8244 15.7872 73.8235 17.3705 73.8209 18.9538C73.8209 19.0671 73.8505 19.1115 73.9714 19.1106C74.8958 19.1043 75.8203 19.1069 76.7447 19.1095C78.2371 19.1137 79.7295 19.1178 81.2218 19.0845C81.7949 19.0714 82.3593 18.9878 82.909 18.8222C83.3099 18.7011 83.6847 18.5277 84.0108 18.2584C84.4926 17.8611 84.7214 17.3452 84.7509 16.7265C84.7822 16.0721 84.6292 15.4883 84.1456 15.0212C83.8587 14.7441 83.5143 14.5603 83.1447 14.4209C82.4837 14.1716 81.7915 14.0662 81.0922 14.054C80.2685 14.0405 79.4448 14.0434 78.621 14.0463L78.6202 14.0463C78.2737 14.0476 77.9271 14.0488 77.5805 14.0488ZM77.0596 4.91496V4.90624H74.0149C73.8253 4.90624 73.8227 4.90886 73.8227 5.09359V9.57423C73.8227 9.75897 73.8244 9.76071 74.0157 9.76071C74.2588 9.76071 74.5019 9.76133 74.745 9.76194H74.7451H74.7453H74.7454H74.7455H74.7456C75.2671 9.76327 75.7887 9.76459 76.3099 9.75984C76.7328 9.75579 77.1559 9.75942 77.5789 9.76305C78.4302 9.77036 79.2816 9.77767 80.1321 9.72237C80.7183 9.68403 81.2923 9.57423 81.8393 9.34942C82.9298 8.9024 83.4082 8.11205 83.2664 6.94615C83.1734 6.18195 82.7055 5.687 82.0358 5.36372C81.4131 5.06222 80.7435 4.93587 80.0608 4.92106C79.3583 4.90513 78.6549 4.90858 77.9512 4.91204C77.654 4.9135 77.3568 4.91496 77.0596 4.91496ZM48.8907 9.09855V8.88767C49.1757 9.2174 49.4501 9.53533 49.7202 9.84822L49.7276 9.85674L50.2805 10.4971C50.8737 11.1834 51.4673 11.8695 52.061 12.5557C52.6544 13.2415 53.2479 13.9274 53.8409 14.6135C54.4605 15.3302 55.0795 16.0472 55.6985 16.7641C56.3175 17.481 56.9365 18.1979 57.5561 18.9147C57.9675 19.3906 58.3792 19.8664 58.7908 20.3423L58.7918 20.3434L58.7928 20.3445L58.7937 20.3456L58.7947 20.3467C59.6923 21.3843 60.59 22.4219 61.4853 23.4615C61.574 23.5652 61.6618 23.6088 61.7975 23.6088C62.9696 23.6054 64.1413 23.6057 65.3128 23.606L66.3172 23.6062C66.5415 23.6062 66.5415 23.6062 66.5415 23.3796V0.616521C66.5415 0.394319 66.5407 0.394318 66.312 0.394318L64.5795 0.394125H64.5794H64.5793H64.5793H64.5792H64.5791H64.579C63.4239 0.393931 62.2685 0.393737 61.1131 0.394318C61.0828 0.394318 61.0554 0.394047 61.0308 0.393802C60.9186 0.392689 60.8619 0.392127 60.8335 0.420175C60.8045 0.448801 60.8049 0.507226 60.8058 0.625278V0.625658V0.626069V0.626512V0.626989C60.8059 0.648246 60.8061 0.671421 60.8061 0.696688C60.8061 5.27318 60.8061 9.8488 60.8052 14.4253C60.8052 14.4307 60.8054 14.4361 60.8056 14.4416C60.8059 14.4489 60.8064 14.4563 60.807 14.4638L60.807 14.4644C60.8101 14.5097 60.8133 14.5573 60.7817 14.6065C60.7574 14.5795 60.7417 14.5621 60.7269 14.5447L59.7955 13.4668L58.8641 12.3889C58.3096 11.7468 57.7549 11.1047 57.2002 10.4626C56.643 9.81764 56.0858 9.17271 55.5289 8.52779C54.3531 7.16582 53.1773 5.80298 52.0015 4.44014C51.6886 4.07738 51.3755 3.71475 51.0624 3.35212L51.0546 3.34319L51.0411 3.32755C50.2407 2.40051 49.4402 1.47346 48.642 0.544196C48.5507 0.438759 48.4576 0.391704 48.3159 0.391704C47.0341 0.395093 45.7523 0.394792 44.4705 0.39449L43.3718 0.394318C43.1544 0.394318 43.1535 0.394319 43.1535 0.61565V23.3639C43.1535 23.6001 43.1535 23.6009 43.3883 23.6009H48.6585C48.7011 23.6009 48.7437 23.6001 48.7864 23.5983C48.8533 23.5966 48.8916 23.5661 48.8899 23.4938C48.8893 23.4624 48.8897 23.4314 48.8902 23.4003C48.8904 23.3795 48.8907 23.3587 48.8907 23.3378V9.09855ZM36.0234 9.87236C35.9878 11.0906 35.6434 12.104 34.8059 12.9117C34.5184 13.1891 34.1882 13.4122 33.8582 13.6352C33.7808 13.6875 33.7034 13.7397 33.6266 13.7927C31.9516 14.949 30.2749 16.1036 28.5973 17.2564C27.0899 18.2924 25.5811 19.3274 24.0727 20.3622L22.5461 21.4095C22.537 21.4157 22.5279 21.4222 22.5188 21.4288L22.5187 21.4288L22.5186 21.4289C22.501 21.4415 22.4833 21.4543 22.4644 21.4652C22.4487 21.4739 22.4261 21.4826 22.4122 21.4774C22.3852 21.467 22.3913 21.4391 22.3992 21.4164C22.4101 21.3838 22.4204 21.3508 22.4308 21.3177C22.4559 21.2378 22.481 21.1576 22.5148 21.0818C23.049 19.8705 23.5853 18.6607 24.1217 17.4503L24.1218 17.4503L24.1218 17.4502L24.1218 17.4501L24.1218 17.4501L24.1219 17.45L24.3046 17.0377C24.6834 16.1823 25.0627 15.3272 25.442 14.4721L25.4441 14.4675L25.4461 14.4629C25.7551 13.7663 26.0641 13.0697 26.3727 12.3732C26.5597 11.9513 26.7451 11.5287 26.9305 11.1061L26.931 11.105L26.931 11.1048C27.3738 10.0954 27.8165 9.08619 28.2816 8.08777C28.6164 7.36801 29.1887 6.83908 29.8801 6.44783C30.5184 6.08621 31.2115 5.90845 31.9403 5.90845C32.9865 5.90932 33.8979 6.2936 34.6719 6.98373C35.3859 7.61984 35.839 8.4128 35.9756 9.37132C35.977 9.3825 35.9789 9.39358 35.9808 9.40464C35.9844 9.42631 35.988 9.44785 35.9886 9.46978C35.9907 9.54539 36.0008 9.6208 36.0098 9.68822L36.0098 9.68826L36.0098 9.68851C36.0198 9.76315 36.0284 9.82797 36.0234 9.87236ZM6.5872 5.96591C4.55478 6.18202 3.00329 7.98055 3.03286 10.0222C3.03286 10.0613 3.03229 10.1003 3.03173 10.1393C3.03044 10.2282 3.02916 10.3166 3.0346 10.4039C3.04243 10.5215 3.06243 10.6383 3.08591 10.7542C3.29985 11.8111 3.83296 12.6634 4.72263 13.2803C5.40892 13.7562 6.0972 14.2301 6.78531 14.7038C7.11654 14.9319 7.44773 15.1599 7.77865 15.3882C8.8869 16.1524 9.99503 16.9168 11.1031 17.6812L11.1504 17.7138C12.9386 18.9474 14.7268 20.1809 16.5154 21.4138C16.5275 21.4222 16.5402 21.4326 16.5533 21.4433C16.6039 21.4845 16.6601 21.5304 16.7119 21.4861C16.7621 21.4437 16.728 21.3867 16.6961 21.3335C16.686 21.3167 16.6762 21.3003 16.6693 21.2848C16.3979 20.6778 16.1255 20.0714 15.8532 19.4651C15.6822 19.0844 15.5112 18.7038 15.3404 18.323L14.5043 16.4578L14.5035 16.4562C14.1002 15.5563 13.6969 14.6564 13.2932 13.7569L12.8667 12.8054C12.3576 11.6695 11.8484 10.5333 11.3365 9.39915C11.2688 9.24964 11.206 9.0974 11.1432 8.94516C11.0017 8.6023 10.8603 8.25941 10.6633 7.94743C9.71801 6.45127 8.33698 5.78031 6.5872 5.96591ZM14.8524 0.419592C16.684 0.375152 18.6329 1.76588 18.9434 3.95478C19.0199 4.49417 18.9529 5.01787 18.8703 5.54593C18.6729 6.80535 18.4762 8.06544 18.2796 9.32502L18.2794 9.32603L18.2792 9.32739L18.279 9.32912L18.1989 9.84184L18.0268 10.9408L18.0264 10.9438L18.0261 10.9456L18.0258 10.9474C17.8694 11.9458 17.713 12.9439 17.558 13.9426C17.4795 14.4472 17.4013 14.9519 17.3231 15.4567L17.3226 15.46C17.1696 16.4472 17.0166 17.4345 16.8614 18.4215C16.8588 18.4377 16.8582 18.4566 16.8577 18.4759C16.856 18.5334 16.8543 18.5951 16.797 18.6036C16.7539 18.6099 16.7339 18.5557 16.7148 18.5039C16.7077 18.4846 16.7007 18.4656 16.6927 18.4502C16.2094 17.5103 15.7832 16.5441 15.3569 15.5781C15.1825 15.1827 15.0081 14.7874 14.8298 14.3939C14.3142 13.2553 13.8047 12.114 13.2951 10.9725L13.295 10.9722L13.2937 10.9694L13.2937 10.9693L13.2936 10.9691C13.0834 10.4983 12.8732 10.0275 12.6626 9.55689C12.521 9.2407 12.3792 8.92457 12.2374 8.60843L12.2373 8.6081L12.2371 8.60778L12.237 8.60746C11.8338 7.70851 11.4306 6.80942 11.0311 5.90842C10.7919 5.36904 10.7259 4.79654 10.7754 4.21533C10.865 3.16009 11.3068 2.26605 12.0625 1.52712C12.6965 0.906694 13.4653 0.567727 14.3385 0.449219C14.5159 0.423949 14.6942 0.416107 14.8524 0.419592ZM22.261 18.4353L22.2966 18.6471C22.3603 18.6148 22.3769 18.578 22.3919 18.5444L22.3958 18.5358L22.3992 18.5286L23.4806 16.0931L24.5621 13.6576C24.8133 13.0914 25.0652 12.5253 25.317 11.9593C25.9256 10.5916 26.5342 9.22376 27.1346 7.85245C27.2344 7.62377 27.344 7.39955 27.4536 7.1754C27.6304 6.81364 27.8072 6.45207 27.9425 6.07222C28.206 5.33242 28.3391 4.57258 28.2147 3.78833C28.046 2.72263 27.4885 1.87565 26.658 1.2195C25.8388 0.572066 24.883 0.319366 23.8446 0.39082C22.6175 0.475344 21.6391 1.0339 20.8877 1.99329C20.3616 2.66512 20.1102 3.44414 20.0676 4.29286C20.0615 4.41486 20.1215 4.45581 20.2381 4.46365C20.5625 4.48479 20.8872 4.48383 21.2121 4.48287H21.2121C21.3828 4.48237 21.5536 4.48187 21.7243 4.48457C21.8096 4.48631 21.8922 4.49154 21.9722 4.52901C21.9891 4.5369 22.0075 4.54377 22.026 4.5507C22.0914 4.57511 22.1584 4.60015 22.1679 4.67279C22.1778 4.74834 22.1153 4.78205 22.0557 4.81419C22.0369 4.8243 22.0185 4.83426 22.0026 4.84532C21.9023 4.91529 21.8002 4.98287 21.6981 5.05046L21.6981 5.05048C21.4302 5.22784 21.1621 5.40526 20.926 5.62608C20.5486 5.97899 20.3468 6.39725 20.432 6.92966C20.6346 8.1995 20.8354 9.46933 21.0362 10.7392L21.0369 10.7434C21.1575 11.506 21.2781 12.2685 21.3991 13.0311C21.6609 14.6815 21.9235 16.3327 22.1861 17.984C22.2101 18.1331 22.2352 18.2823 22.261 18.4353ZM21.9409 23.2838C22.254 23.065 22.5671 22.8463 22.8802 22.6285C25.9075 20.5215 28.9348 18.4145 31.9639 16.3092C32.0557 16.2453 32.146 16.179 32.2364 16.1127L32.2364 16.1126C32.4662 15.944 32.696 15.7753 32.9501 15.6452C34.1259 15.044 35.3347 14.9621 36.5575 15.484C37.7698 16.0016 38.6038 16.9052 38.923 18.1748C39.33 19.7965 38.9204 21.2282 37.6306 22.3479C36.8601 23.0171 35.953 23.3221 34.9347 23.3221C31.381 23.3206 27.8279 23.3222 24.2744 23.3238H24.2738L22.1436 23.3247H21.9496C21.9481 23.3169 21.9464 23.309 21.9447 23.3013L21.9409 23.2838ZM16.936 23.323H17.116C17.1004 23.2618 17.0679 23.2413 17.039 23.223C17.0325 23.2189 17.0262 23.2149 17.0203 23.2106C14.8431 21.6942 12.6659 20.1787 10.4886 18.6632L10.4743 18.6533C10.0996 18.3926 9.72446 18.1326 9.3493 17.8727C8.42782 17.2342 7.50645 16.5958 6.59298 15.9468C5.65896 15.2837 4.63274 15.0423 3.51 15.1974C2.54728 15.3298 1.74022 15.7716 1.08449 16.4879C0.455719 17.1754 0.053931 17.9745 0.0069688 18.913C-0.0582565 20.2261 0.330486 21.372 1.33756 22.2669C2.10374 22.9474 2.99516 23.3152 4.01876 23.3169C7.24806 23.3228 10.4774 23.3228 13.7067 23.3228C14.7831 23.3228 15.8595 23.3228 16.936 23.323Z" fill="black"/>
</svg>
